<svg xmlns="http://www.w3.org/2000/svg" width="1200" height="750" viewBox="0 0 1200 750">
<defs>
  <pattern id="grid" width="40" height="40" patternUnits="userSpaceOnUse">
    <path d="M40 0H0V40" fill="none" stroke="rgba(255,255,255,0.06)" stroke-width="1"/>
  </pattern>
  <filter id="shadow" x="-20%" y="-20%" width="140%" height="140%">
    <feDropShadow dx="0" dy="24" stdDeviation="28" flood-color="#000" flood-opacity="0.5"/>
  </filter>
  <filter id="softGlow" x="-20%" y="-20%" width="140%" height="140%">
    <feGaussianBlur stdDeviation="12" result="blur"/>
    <feComposite in="SourceGraphic" in2="blur" operator="over"/>
  </filter>
  
      <linearGradient id="monitorGrad" x1="0" y1="0" x2="0" y2="1"><stop offset="0%" stop-color="#1e2430"/><stop offset="100%" stop-color="#0e1117"/></linearGradient>
    
</defs>
<rect width="1200" height="750" fill="#121419"/>
<rect width="1200" height="750" fill="url(#grid)"/>
<circle cx="1050" cy="100" r="320" fill="#f6ad55" opacity="0.08" filter="url(#softGlow)"/>
<circle cx="150" cy="650" r="280" fill="#f6ad55" opacity="0.05" filter="url(#softGlow)"/>
<text x="50" y="65" font-family="monospace, 'Courier New', monospace" font-size="14" fill="#f6ad55" letter-spacing="3" font-weight="600">HARDWARE / 4K DISPLAY SCALING, SUBPIXEL TEXT &amp; DESK ERGONOMICS</text>

      <g transform="translate(100, 105)" filter="url(#shadow)">
        <rect width="1000" height="540" rx="14" fill="#171a21" stroke="#2b313d" stroke-width="2"/>
        <rect width="1000" height="42" rx="14" fill="#1f232d"/>
        <text x="35" y="26" font-family="monospace" font-size="13" fill="#f6ad55" font-weight="bold">DISPLAY CLARITY: 3840×2160 SUBPIXEL TEXT RENDERING &amp; 200% INTEGER SCALING</text>

        <g transform="translate(60, 65)">
          <rect width="880" height="380" rx="8" fill="url(#monitorGrad)" stroke="#4a5568" stroke-width="3"/>
          <rect x="20" y="20" width="840" height="340" fill="#0d1017"/>

          <!-- Window 1: Code Editor with Crisp Font -->
          <g transform="translate(40, 40)">
            <rect width="380" height="300" rx="4" fill="#141824" stroke="#252c3d"/>
            <text x="20" y="25" font-family="monospace" font-size="11" fill="#f6ad55">4K at 150% Scale: Crisp Glyphs</text>
            <g transform="translate(20, 50)">
              <text x="0" y="20" font-family="monospace" font-size="14" fill="#cbd5e0" font-weight="bold">const buffer = allocate(4096);</text>
              <text x="0" y="45" font-family="monospace" font-size="14" fill="#90cdf4">if (buffer.capacity &lt; max) {</text>
              <text x="20" y="70" font-family="monospace" font-size="14" fill="#48bb78">  stream.flush(target);</text>
              <text x="0" y="95" font-family="monospace" font-size="14" fill="#90cdf4">}</text>

              <g transform="translate(120, 110)">
                <circle cx="60" cy="60" r="55" fill="#1a202c" stroke="#f6ad55" stroke-width="2"/>
                <rect x="25" y="30" width="6" height="60" fill="#e53e3e"/>
                <rect x="33" y="30" width="6" height="60" fill="#48bb78"/>
                <rect x="41" y="30" width="6" height="60" fill="#3182ce"/>
                <rect x="52" y="30" width="6" height="60" fill="#e53e3e"/>
                <rect x="60" y="30" width="6" height="60" fill="#48bb78"/>
                <rect x="68" y="30" width="6" height="60" fill="#3182ce"/>
                <rect x="79" y="30" width="6" height="60" fill="#e53e3e"/>
                <rect x="87" y="30" width="6" height="60" fill="#48bb78"/>
                <rect x="95" y="30" width="6" height="60" fill="#3182ce"/>
                <text x="15" y="105" font-family="monospace" font-size="8" fill="#fff">SUBPIXEL RGB</text>
              </g>
            </g>
          </g>

          <!-- Window 2: Technical Checklist &amp; Eyeline Specs -->
          <g transform="translate(460, 40)">
            <rect width="380" height="300" rx="4" fill="#141824" stroke="#252c3d"/>
            <text x="20" y="25" font-family="monospace" font-size="11" fill="#f6ad55">Evaluation Checklist</text>
            
            <g transform="translate(20, 50)">
              <text x="0" y="20" font-family="monospace" font-size="11" fill="#fff">1. Native 4K Text Clarity</text>
              <text x="0" y="40" font-family="sans-serif" font-size="10" fill="#a0aec0">Check font rendering before paying for 144Hz.</text>

              <text x="0" y="75" font-family="monospace" font-size="11" fill="#fff">2. Desk Depth &amp; Distance</text>
              <text x="0" y="95" font-family="sans-serif" font-size="10" fill="#a0aec0">27" vs 32": requires 60cm - 80cm viewing distance.</text>

              <text x="0" y="130" font-family="monospace" font-size="11" fill="#fff">3. Integer vs Fractional Scaling</text>
              <text x="0" y="150" font-family="sans-serif" font-size="10" fill="#a0aec0">macOS fractional scaling overhead vs Windows Cleartype.</text>

              <rect y="180" width="340" height="50" rx="4" fill="#2d2214" stroke="#f6ad55"/>
              <text x="15" y="202" font-family="monospace" font-size="10" fill="#f6ad55">RECOMMENDED WORKFLOW:</text>
              <text x="15" y="218" font-family="monospace" font-size="9" fill="#e2e8f0">32" 4K display at 150% = 2560×1440 readable canvas.</text>
            </g>
          </g>
        </g>

        <!-- Monitor Base Stand -->
        <g transform="translate(440, 445)">
          <rect x="40" y="0" width="40" height="40" fill="#2d3748"/>
          <rect x="0" y="40" width="120" height="15" rx="3" fill="#1a202c" stroke="#4a5568"/>
        </g>
      </g>
    
<text x="50" y="715" font-family="monospace, 'Courier New', monospace" font-size="12" fill="#718096" opacity="0.75" letter-spacing="2">FYRELINKZ / EDITORIAL ILLUSTRATION · CONCEPTUAL ARTWORK</text>
</svg>