<svg xmlns="http://www.w3.org/2000/svg" width="1200" height="750" viewBox="0 0 1200 750">
<defs>
  <pattern id="grid" width="40" height="40" patternUnits="userSpaceOnUse">
    <path d="M40 0H0V40" fill="none" stroke="rgba(255,255,255,0.06)" stroke-width="1"/>
  </pattern>
  <filter id="shadow" x="-20%" y="-20%" width="140%" height="140%">
    <feDropShadow dx="0" dy="24" stdDeviation="28" flood-color="#000" flood-opacity="0.5"/>
  </filter>
  <filter id="softGlow" x="-20%" y="-20%" width="140%" height="140%">
    <feGaussianBlur stdDeviation="12" result="blur"/>
    <feComposite in="SourceGraphic" in2="blur" operator="over"/>
  </filter>
  
      <radialGradient id="viewfinderGrad" cx="50%" cy="50%" r="50%"><stop offset="0%" stop-color="#2d1c10"/><stop offset="100%" stop-color="#120c08"/></radialGradient>
    
</defs>
<rect width="1200" height="750" fill="#1a140f"/>
<rect width="1200" height="750" fill="url(#grid)"/>
<circle cx="1050" cy="100" r="320" fill="#f6ad55" opacity="0.08" filter="url(#softGlow)"/>
<circle cx="150" cy="650" r="280" fill="#f6ad55" opacity="0.05" filter="url(#softGlow)"/>
<text x="50" y="65" font-family="monospace, 'Courier New', monospace" font-size="14" fill="#f6ad55" letter-spacing="3" font-weight="600">PROMPT CRAFT / AI VIDEO SHOT BRIEF ANATOMY</text>

      <g transform="translate(100, 105)" filter="url(#shadow)">
        <rect width="1000" height="540" rx="14" fill="#1f1610" stroke="#3d281a" stroke-width="2"/>
        <rect width="1000" height="42" rx="14" fill="#2d1e13"/>
        <text x="35" y="26" font-family="monospace" font-size="13" fill="#f6ad55" font-weight="bold">PROMPT ANATOMY: TREAT THE PROMPT AS A CINEMATOGRAPHER'S SHOT BRIEF</text>

        <!-- Camera Viewfinder Overlay -->
        <g transform="translate(50, 65)">
          <rect width="600" height="435" rx="8" fill="url(#viewfinderGrad)" stroke="#4a3222" stroke-width="2"/>
          
          <line x1="200" y1="20" x2="200" y2="415" stroke="#f6ad55" stroke-width="1" opacity="0.3"/>
          <line x1="400" y1="20" x2="400" y2="415" stroke="#f6ad55" stroke-width="1" opacity="0.3"/>
          <line x1="20" y1="145" x2="580" y2="145" stroke="#f6ad55" stroke-width="1" opacity="0.3"/>
          <line x1="20" y1="290" x2="580" y2="290" stroke="#f6ad55" stroke-width="1" opacity="0.3"/>

          <path d="M 40 60 L 40 40 L 60 40" fill="none" stroke="#f6ad55" stroke-width="3"/>
          <path d="M 560 60 L 560 40 L 540 40" fill="none" stroke="#f6ad55" stroke-width="3"/>
          <path d="M 40 375 L 40 395 L 60 395" fill="none" stroke="#f6ad55" stroke-width="3"/>
          <path d="M 560 375 L 560 395 L 540 395" fill="none" stroke="#f6ad55" stroke-width="3"/>

          <circle cx="300" cy="217" r="12" fill="none" stroke="#f6ad55" stroke-width="2"/>
          <line x1="300" y1="195" x2="300" y2="239" stroke="#f6ad55" stroke-width="1.5"/>
          <line x1="278" y1="217" x2="322" y2="217" stroke="#f6ad55" stroke-width="1.5"/>

          <path d="M 180 270 Q 300 160 420 270" fill="none" stroke="#ff8056" stroke-width="3" stroke-dasharray="6,4"/>
          <polygon points="420,270 405,260 410,275" fill="#ff8056"/>
          <text x="230" y="190" font-family="monospace" font-size="11" fill="#fbd38d">Camera Orbit 45°</text>

          <text x="50" y="70" font-family="monospace" font-size="11" fill="#f6ad55">REC ● 24 FPS</text>
          <text x="460" y="70" font-family="monospace" font-size="11" fill="#f6ad55">50mm · f/1.8</text>
          <text x="50" y="380" font-family="monospace" font-size="11" fill="#f6ad55">SHUTTER: 1/48</text>
          <text x="470" y="380" font-family="monospace" font-size="11" fill="#f6ad55">ISO 400</text>
        </g>

        <!-- Right Side: Shot Brief Breakdown -->
        <g transform="translate(680, 65)">
          <rect width="270" height="435" rx="8" fill="#140f0b" stroke="#3d281a"/>
          <text x="20" y="30" font-family="monospace" font-size="11" fill="#f6ad55" font-weight="bold">6-ELEMENT SHOT BRIEF</text>

          <g transform="translate(15, 50)">
            <rect width="240" height="50" rx="4" fill="#241710"/>
            <text x="15" y="20" font-family="monospace" font-size="10" fill="#fbd38d">1. Single Core Action</text>
            <text x="15" y="38" font-family="sans-serif" font-size="9" fill="#a0aec0">"Hand turns ceramic mug once"</text>

            <rect y="60" width="240" height="50" rx="4" fill="#241710"/>
            <text x="15" y="80" font-family="monospace" font-size="10" fill="#fbd38d">2. Explicit Camera Move</text>
            <text x="15" y="98" font-family="sans-serif" font-size="9" fill="#a0aec0">"Static shot" vs "Slow truck right"</text>

            <rect y="120" width="240" height="50" rx="4" fill="#241710"/>
            <text x="15" y="140" font-family="monospace" font-size="10" fill="#fbd38d">3. Defined Cut / Finish</text>
            <text x="15" y="158" font-family="sans-serif" font-size="9" fill="#a0aec0">"Movement settles before 4s cut"</text>

            <rect y="180" width="240" height="50" rx="4" fill="#241710"/>
            <text x="15" y="200" font-family="monospace" font-size="10" fill="#fbd38d">4. Lighting &amp; Environment</text>
            <text x="15" y="218" font-family="sans-serif" font-size="9" fill="#a0aec0">"Soft morning window side-light"</text>

            <rect y="240" width="240" height="50" rx="4" fill="#241710"/>
            <text x="15" y="260" font-family="monospace" font-size="10" fill="#fbd38d">5. Negative Words to Cut</text>
            <text x="15" y="278" font-family="sans-serif" font-size="9" fill="#e53e3e">Delete: "cinematic, 8k, hyper-detailed"</text>

            <rect y="300" width="240" height="65" rx="4" fill="#2d1c12" stroke="#f6ad55"/>
            <text x="15" y="325" font-family="monospace" font-size="10" fill="#fbd38d" font-weight="bold">EVALUATION GOAL:</text>
            <text x="15" y="348" font-family="monospace" font-size="9" fill="#fff">One variable changed per attempt.</text>
          </g>
        </g>
      </g>
    
<text x="50" y="715" font-family="monospace, 'Courier New', monospace" font-size="12" fill="#718096" opacity="0.75" letter-spacing="2">FYRELINKZ / EDITORIAL ILLUSTRATION · CONCEPTUAL ARTWORK</text>
</svg>