<svg xmlns="http://www.w3.org/2000/svg" width="1200" height="750" viewBox="0 0 1200 750">
<defs>
  <pattern id="grid" width="40" height="40" patternUnits="userSpaceOnUse">
    <path d="M40 0H0V40" fill="none" stroke="rgba(255,255,255,0.06)" stroke-width="1"/>
  </pattern>
  <filter id="shadow" x="-20%" y="-20%" width="140%" height="140%">
    <feDropShadow dx="0" dy="24" stdDeviation="28" flood-color="#000" flood-opacity="0.5"/>
  </filter>
  <filter id="softGlow" x="-20%" y="-20%" width="140%" height="140%">
    <feGaussianBlur stdDeviation="12" result="blur"/>
    <feComposite in="SourceGraphic" in2="blur" operator="over"/>
  </filter>
  
      <linearGradient id="meshGrad" x1="0" y1="0" x2="1" y2="1"><stop offset="0%" stop-color="#48bb78"/><stop offset="100%" stop-color="#2d3748"/></linearGradient>
    
</defs>
<rect width="1200" height="750" fill="#101713"/>
<rect width="1200" height="750" fill="url(#grid)"/>
<circle cx="1050" cy="100" r="320" fill="#48bb78" opacity="0.08" filter="url(#softGlow)"/>
<circle cx="150" cy="650" r="280" fill="#48bb78" opacity="0.05" filter="url(#softGlow)"/>
<text x="50" y="65" font-family="monospace, 'Courier New', monospace" font-size="14" fill="#48bb78" letter-spacing="3" font-weight="600">COMFYUI / NATIVE TRELLIS.2 &amp; PIXAL3D MESH</text>

      <g transform="translate(100, 100)" filter="url(#shadow)">
        <!-- Canvas board -->
        <rect width="1000" height="550" rx="14" fill="#131c17" stroke="#253a2c" stroke-width="2"/>
        
        <!-- Node 1: Input Image -->
        <g transform="translate(40, 80)">
          <rect width="220" height="220" rx="8" fill="#18261e" stroke="#2d4a37"/>
          <rect width="220" height="30" rx="8" fill="#223b2c"/>
          <text x="15" y="20" font-family="monospace" font-size="11" fill="#9ae6b4" font-weight="bold">Load Image (Source)</text>
          <rect x="15" y="45" width="190" height="155" rx="4" fill="#0d1410"/>
          <circle cx="110" cy="115" r="45" fill="#48bb78" opacity="0.3"/>
          <polygon points="110,80 150,140 70,140" fill="#48bb78" opacity="0.8"/>
          <circle cx="215" cy="120" r="5" fill="#48bb78"/>
        </g>

        <!-- Node 2: Trellis.2 Core Node -->
        <g transform="translate(320, 50)">
          <rect width="260" height="280" rx="8" fill="#18261e" stroke="#38a169" stroke-width="2"/>
          <rect width="260" height="32" rx="8" fill="#2b5039"/>
          <text x="15" y="21" font-family="monospace" font-size="12" fill="#fff" font-weight="bold">Trellis2ModelLoader</text>
          <circle cx="5" cy="120" r="5" fill="#48bb78"/>
          <text x="20" y="80" font-family="monospace" font-size="11" fill="#a0aec0">sparse_structure_flow: 1.0</text>
          <text x="20" y="110" font-family="monospace" font-size="11" fill="#a0aec0">slat_guidance_strength: 7.5</text>
          <text x="20" y="140" font-family="monospace" font-size="11" fill="#a0aec0">simplify: 0.95</text>
          <text x="20" y="170" font-family="monospace" font-size="11" fill="#a0aec0">texture_size: 2048</text>
          <rect x="20" y="195" width="220" height="35" rx="4" fill="#1a3826"/>
          <text x="50" y="217" font-family="monospace" font-size="11" fill="#9ae6b4">PIXAL3D POST-PROCESS</text>
          <circle cx="255" cy="140" r="5" fill="#9ae6b4"/>
        </g>

        <!-- Connecting Noodles -->
        <path d="M 260 200 C 290 200, 290 170, 320 170" fill="none" stroke="#48bb78" stroke-width="3"/>
        <path d="M 580 190 C 620 190, 620 220, 660 220" fill="none" stroke="#9ae6b4" stroke-width="3"/>

        <!-- Node 3: 3D Mesh Preview &amp; Export -->
        <g transform="translate(660, 60)">
          <rect width="300" height="420" rx="8" fill="#18261e" stroke="#2d4a37"/>
          <rect width="300" height="32" rx="8" fill="#223b2c"/>
          <text x="15" y="21" font-family="monospace" font-size="12" fill="#9ae6b4" font-weight="bold">3D Mesh Viewport &amp; GLB Export</text>
          
          <!-- 3D Polyhedral Sculpture Wireframe -->
          <rect x="20" y="50" width="260" height="280" rx="6" fill="#0d1410"/>
          <g transform="translate(150, 190)">
            <polygon points="0,-90 75,-40 75,50 0,100 -75,50 -75,-40" fill="url(#meshGrad)" opacity="0.3"/>
            <polygon points="0,-90 75,-40 0,0 -75,-40" fill="#48bb78" opacity="0.4"/>
            <polygon points="0,0 75,-40 75,50 0,100" fill="#276749" opacity="0.6"/>
            <polygon points="0,0 -75,-40 -75,50 0,100" fill="#1c4532" opacity="0.8"/>
            
            <line x1="0" y1="-90" x2="0" y2="100" stroke="#9ae6b4" stroke-width="1.5"/>
            <line x1="-75" y1="-40" x2="75" y2="50" stroke="#9ae6b4" stroke-width="1.5"/>
            <line x1="75" y1="-40" x2="-75" y2="50" stroke="#9ae6b4" stroke-width="1.5"/>
            <line x1="0" y1="-90" x2="75" y2="-40" stroke="#9ae6b4" stroke-width="2"/>
            <line x1="75" y1="-40" x2="75" y2="50" stroke="#9ae6b4" stroke-width="2"/>
            <line x1="75" y1="50" x2="0" y2="100" stroke="#9ae6b4" stroke-width="2"/>
            <line x1="0" y1="100" x2="-75" y2="50" stroke="#9ae6b4" stroke-width="2"/>
            <line x1="-75" y1="50" x2="-75" y2="-40" stroke="#9ae6b4" stroke-width="2"/>
            <line x1="-75" y1="-40" x2="0" y2="-90" stroke="#9ae6b4" stroke-width="2"/>
            
            <circle cx="0" cy="-90" r="4" fill="#fff"/>
            <circle cx="75" cy="-40" r="4" fill="#fff"/>
            <circle cx="75" cy="50" r="4" fill="#fff"/>
            <circle cx="0" cy="100" r="4" fill="#fff"/>
            <circle cx="-75" cy="50" r="4" fill="#fff"/>
            <circle cx="-75" cy="-40" r="4" fill="#fff"/>
            <circle cx="0" cy="0" r="4" fill="#9ae6b4"/>
          </g>

          <rect x="20" y="350" width="260" height="40" rx="6" fill="#2f855a"/>
          <text x="80" y="375" font-family="monospace" font-size="12" fill="#fff" font-weight="bold">SAVE MESH (.GLB / .OBJ) ↗</text>
        </g>
      </g>
    
<text x="50" y="715" font-family="monospace, 'Courier New', monospace" font-size="12" fill="#718096" opacity="0.75" letter-spacing="2">FYRELINKZ / EDITORIAL ILLUSTRATION · CONCEPTUAL ARTWORK</text>
</svg>