<svg xmlns="http://www.w3.org/2000/svg" width="1200" height="750" viewBox="0 0 1200 750">
<defs>
  <pattern id="grid" width="40" height="40" patternUnits="userSpaceOnUse">
    <path d="M40 0H0V40" fill="none" stroke="rgba(255,255,255,0.06)" stroke-width="1"/>
  </pattern>
  <filter id="shadow" x="-20%" y="-20%" width="140%" height="140%">
    <feDropShadow dx="0" dy="24" stdDeviation="28" flood-color="#000" flood-opacity="0.5"/>
  </filter>
  <filter id="softGlow" x="-20%" y="-20%" width="140%" height="140%">
    <feGaussianBlur stdDeviation="12" result="blur"/>
    <feComposite in="SourceGraphic" in2="blur" operator="over"/>
  </filter>
  
      <linearGradient id="radarGrad" x1="0" y1="0" x2="1" y2="1"><stop offset="0%" stop-color="#4fd1c5"/><stop offset="100%" stop-color="#319795"/></linearGradient>
    
</defs>
<rect width="1200" height="750" fill="#0f171c"/>
<rect width="1200" height="750" fill="url(#grid)"/>
<circle cx="1050" cy="100" r="320" fill="#4fd1c5" opacity="0.08" filter="url(#softGlow)"/>
<circle cx="150" cy="650" r="280" fill="#4fd1c5" opacity="0.05" filter="url(#softGlow)"/>
<text x="50" y="65" font-family="monospace, 'Courier New', monospace" font-size="14" fill="#4fd1c5" letter-spacing="3" font-weight="600">BENCHMARKS / FRONTIER AI REASONING &amp; CAPABILITY</text>

      <g transform="translate(100, 105)" filter="url(#shadow)">
        <rect width="1000" height="540" rx="14" fill="#141f26" stroke="#233540" stroke-width="2"/>
        <rect width="1000" height="42" rx="14" fill="#1c2d38"/>
        <text x="35" y="26" font-family="monospace" font-size="13" fill="#4fd1c5" font-weight="bold">RADAR BENCHMARK: SHOULD YOUR TEAM SWITCH TO A NEW FRONTIER MODEL?</text>

        <!-- Spider / Radar Chart -->
        <g transform="translate(260, 280)">
          <polygon points="0,-160 152,-49 94,130 -94,130 -152,-49" fill="none" stroke="#2a4352" stroke-width="1.5"/>
          <polygon points="0,-120 114,-37 70,97 -70,97 -114,-37" fill="none" stroke="#2a4352" stroke-width="1.5"/>
          <polygon points="0,-80 76,-25 47,65 -47,65 -76,-25" fill="none" stroke="#2a4352" stroke-width="1.5"/>
          <polygon points="0,-40 38,-12 23,32 -23,32 -38,-12" fill="none" stroke="#2a4352" stroke-width="1.5"/>

          <line x1="0" y1="0" x2="0" y2="-170" stroke="#3d6075" stroke-width="1.5"/>
          <line x1="0" y1="0" x2="160" y2="-52" stroke="#3d6075" stroke-width="1.5"/>
          <line x1="0" y1="0" x2="100" y2="140" stroke="#3d6075" stroke-width="1.5"/>
          <line x1="0" y1="0" x2="-100" y2="140" stroke="#3d6075" stroke-width="1.5"/>
          <line x1="0" y1="0" x2="-160" y2="-52" stroke="#3d6075" stroke-width="1.5"/>

          <text x="-40" y="-175" font-family="monospace" font-size="11" fill="#4fd1c5" font-weight="bold">Reasoning (SWE)</text>
          <text x="145" y="-55" font-family="monospace" font-size="11" fill="#4fd1c5" font-weight="bold">Throughput</text>
          <text x="60" y="155" font-family="monospace" font-size="11" fill="#4fd1c5" font-weight="bold">Context Recall</text>
          <text x="-165" y="155" font-family="monospace" font-size="11" fill="#4fd1c5" font-weight="bold">Tool / Agent Use</text>
          <text x="-215" y="-55" font-family="monospace" font-size="11" fill="#4fd1c5" font-weight="bold">Cost Efficiency</text>

          <polygon points="0,-145 130,-42 80,110 -85,118 -125,-40" fill="url(#radarGrad)" opacity="0.35" stroke="#4fd1c5" stroke-width="3"/>
          <circle cx="0" cy="-145" r="4" fill="#fff"/>
          <circle cx="130" cy="-42" r="4" fill="#fff"/>
          <circle cx="80" cy="110" r="4" fill="#fff"/>
          <circle cx="-85" cy="118" r="4" fill="#fff"/>
          <circle cx="-125" cy="-40" r="4" fill="#fff"/>

          <polygon points="0,-105 140,-45 85,120 -60,85 -95,-30" fill="none" stroke="#e53e3e" stroke-width="2" stroke-dasharray="4,4"/>
        </g>

        <!-- Right: Decision Checklist Panel -->
        <g transform="translate(570, 70)">
          <rect width="380" height="425" rx="8" fill="#101920" stroke="#233540"/>
          <text x="25" y="35" font-family="monospace" font-size="12" fill="#4fd1c5" font-weight="bold">PRACTICAL SWITCHING CHECKLIST</text>
          
          <rect x="25" y="60" width="330" height="65" rx="4" fill="#17232d"/>
          <text x="40" y="85" font-family="monospace" font-size="11" fill="#e2e8f0">1. Measure Your Own Prompts</text>
          <text x="40" y="105" font-family="monospace" font-size="10" fill="#a0aec0">Synthetic leaderboards do not reflect your codebase.</text>

          <rect x="25" y="140" width="330" height="65" rx="4" fill="#17232d"/>
          <text x="40" y="165" font-family="monospace" font-size="11" fill="#e2e8f0">2. Real Latency vs Tokens/Sec</text>
          <text x="40" y="185" font-family="monospace" font-size="10" fill="#a0aec0">Check Time-To-First-Token on long contexts.</text>

          <rect x="25" y="220" width="330" height="65" rx="4" fill="#17232d"/>
          <text x="40" y="245" font-family="monospace" font-size="11" fill="#e2e8f0">3. Migration &amp; Refactor Cost</text>
          <text x="40" y="265" font-family="monospace" font-size="10" fill="#a0aec0">Tool schema, system prompts and temperature tuning.</text>

          <rect x="25" y="305" width="330" height="90" rx="6" fill="#1b2f38" stroke="#4fd1c5"/>
          <text x="40" y="330" font-family="monospace" font-size="11" fill="#4fd1c5" font-weight="bold">TAKEAWAY:</text>
          <text x="40" y="350" font-family="monospace" font-size="10" fill="#e2e8f0">Only migrate when a model solves an active</text>
          <text x="40" y="370" font-family="monospace" font-size="10" fill="#e2e8f0">failure mode in your existing pipeline.</text>
        </g>
      </g>
    
<text x="50" y="715" font-family="monospace, 'Courier New', monospace" font-size="12" fill="#718096" opacity="0.75" letter-spacing="2">FYRELINKZ / EDITORIAL ILLUSTRATION · CONCEPTUAL ARTWORK</text>
</svg>